<?xml version="1.0" encoding="UTF-8" standalone="no"?>
<svg
   width="16"
   height="16"
   viewBox="0 0 16 16"
   fill="currentColor"
   version="1.1"
   id="svg90"
   sodipodi:docname="inkscape_askguru.svg"
   xml:space="preserve"
   inkscape:version="1.2.2 (b0a8486, 2022-12-01)"
   inkscape:export-filename="../../../Desktop/askguru.svg"
   inkscape:export-xdpi="96"
   inkscape:export-ydpi="96"
   xmlns:inkscape="http://www.inkscape.org/namespaces/inkscape"
   xmlns:sodipodi="http://sodipodi.sourceforge.net/DTD/sodipodi-0.dtd"
   xmlns="http://www.w3.org/2000/svg"
   xmlns:svg="http://www.w3.org/2000/svg"><defs
     id="defs94" /><sodipodi:namedview
     id="namedview92"
     pagecolor="#ffffff"
     bordercolor="#999999"
     borderopacity="1"
     inkscape:showpageshadow="0"
     inkscape:pageopacity="0"
     inkscape:pagecheckerboard="0"
     inkscape:deskcolor="#d1d1d1"
     showgrid="false"
     inkscape:zoom="38.370445"
     inkscape:cx="2.749512"
     inkscape:cy="7.7924559"
     inkscape:window-width="1920"
     inkscape:window-height="942"
     inkscape:window-x="1440"
     inkscape:window-y="25"
     inkscape:window-maximized="0"
     inkscape:current-layer="layer1" /><g
     inkscape:groupmode="layer"
     id="layer1"
     inkscape:label="Layer 1"
     style="display:inline"><path
       id="path1068"
       style="display:inline;opacity:1;fill:#000000;stroke-width:5.77074"
       inkscape:label="hat"
       d="m 8.2039225,1.1155923 -7.94528289,4.2831298 -0.12268366,0.078043 0.40755759,0.234125 4.11715766,2.24256 3.4621565,1.8661225 3.5765223,-1.9717079 1.004338,0.6059734 0.0064,0.1951044 0.128922,5.2930865 c -0.0073,0.01272 -0.01091,0.02303 -0.01455,0.03444 a 0.94099565,1.0322431 0 0 0 -0.611335,0.96405 0.94099565,1.0322431 0 0 0 0.941955,1.032909 0.94099565,1.0322431 0 0 0 0.939877,-1.032909 0.94099565,1.0322431 0 0 0 -0.63005,-0.973231 L 13.387854,8.1875849 8.9068052,5.5433377 9.6886493,5.1118117 13.283885,7.1523809 16.018262,5.4561141 Z" /><path
       id="path1436"
       style="display:inline;opacity:1;fill:#000000;fill-opacity:1;stroke-width:4.69271"
       inkscape:label="half moon"
       d="m 4.2291368,8.214851 c -0.06025,0.208876 -0.091935,0.4220447 -0.094536,0.635996 0.00213,1.687898 1.7756282,3.053306 3.9602625,3.048988 2.1838227,-0.0042 3.9512567,-1.37558 3.9474707,-3.0628481 -3.66e-4,-0.024649 -0.0011,-0.049295 -0.0022,-0.07393 L 11.638368,8.5099221 8.1343292,10.430397 Z"
       sodipodi:nodetypes="cccccccc" /></g></svg>
